<svg xmlns="http://www.w3.org/2000/svg" version="1.1" xmlns:xlink="http://www.w3.org/1999/xlink" xmlns:svgjs="http://svgjs.com/svgjs" width="500" height="500"><svg xmlns="http://www.w3.org/2000/svg" xmlns:xlink="http://www.w3.org/1999/xlink" width="500" zoomAndPan="magnify" viewBox="0 0 375 374.999991" height="500" preserveAspectRatio="xMidYMid meet" version="1.0"><defs><clipPath id="SvgjsClipPath1001"><path d="M 0 0 L 374.984375 0 L 374.984375 374.984375 L 0 374.984375 Z M 0 0 " clip-rule="nonzero"></path></clipPath><clipPath id="SvgjsClipPath1000"><path d="M 34.222656 34.222656 L 340.761719 34.222656 L 340.761719 340.761719 L 34.222656 340.761719 Z M 34.222656 34.222656 " clip-rule="nonzero"></path></clipPath></defs><g clip-path="url(#431baa6bd0)"><path fill="#ffb751" d="M 187.492188 358.40625 L 175.71875 374.984375 L 166.113281 357.058594 L 152.359375 372.027344 L 145.070312 353.039062 L 129.554688 366.160156 L 124.699219 346.40625 L 107.660156 357.476562 L 105.316406 337.265625 L 87.027344 346.109375 L 87.230469 325.765625 L 67.980469 332.242188 L 70.722656 312.085938 L 50.816406 316.09375 L 56.058594 296.4375 L 35.808594 297.914062 L 43.46875 279.074219 L 23.191406 277.996094 L 33.148438 260.265625 L 13.167969 256.648438 L 25.261719 240.308594 L 5.890625 234.210938 L 19.933594 219.519531 L 1.476562 211.039062 L 17.25 198.222656 L 0 187.492188 L 17.25 176.761719 L 1.476562 163.945312 L 19.933594 155.464844 L 5.890625 140.773438 L 25.261719 134.675781 L 13.167969 118.335938 L 33.148438 114.71875 L 23.191406 96.988281 L 43.46875 95.910156 L 35.808594 77.070312 L 56.058594 78.546875 L 50.816406 58.890625 L 70.722656 62.898438 L 67.980469 42.742188 L 87.230469 49.21875 L 87.027344 28.875 L 105.316406 37.71875 L 107.660156 17.507812 L 124.699219 28.578125 L 129.554688 8.824219 L 145.070312 21.945312 L 152.359375 2.957031 L 166.113281 17.925781 L 175.71875 0 L 187.492188 16.578125 L 199.265625 0 L 208.871094 17.925781 L 222.625 2.957031 L 229.914062 21.945312 L 245.429688 8.824219 L 250.285156 28.578125 L 267.324219 17.507812 L 269.667969 37.71875 L 287.953125 28.875 L 287.753906 49.21875 L 307.003906 42.742188 L 304.261719 62.898438 L 324.167969 58.890625 L 318.925781 78.546875 L 339.175781 77.070312 L 331.515625 95.910156 L 351.792969 96.988281 L 341.835938 114.71875 L 361.816406 118.335938 L 349.722656 134.675781 L 369.09375 140.773438 L 355.046875 155.464844 L 373.503906 163.945312 L 357.734375 176.761719 L 374.984375 187.492188 L 357.734375 198.222656 L 373.503906 211.039062 L 355.046875 219.519531 L 369.09375 234.210938 L 349.722656 240.308594 L 361.816406 256.648438 L 341.835938 260.265625 L 351.792969 277.996094 L 331.515625 279.074219 L 339.175781 297.914062 L 318.925781 296.4375 L 324.167969 316.09375 L 304.261719 312.085938 L 307.003906 332.242188 L 287.753906 325.765625 L 287.953125 346.109375 L 269.667969 337.265625 L 267.324219 357.476562 L 250.285156 346.40625 L 245.429688 366.160156 L 229.914062 353.039062 L 222.625 372.027344 L 208.871094 357.058594 L 199.265625 374.984375 Z M 187.492188 358.40625 " fill-opacity="1" fill-rule="evenodd"></path></g><g clip-path="url(#b44e23f3dd)"><path fill="#ffffff" d="M 187.492188 34.222656 C 272.140625 34.222656 340.761719 102.84375 340.761719 187.492188 C 340.761719 272.140625 272.140625 340.761719 187.492188 340.761719 C 102.84375 340.761719 34.222656 272.140625 34.222656 187.492188 C 34.222656 102.84375 102.84375 34.222656 187.492188 34.222656 Z M 252.699219 266.535156 L 251.375 266.882812 C 233.140625 271.601562 213 274.355469 191.820312 274.683594 L 191.820312 331.429688 C 216.980469 328.828125 239.359375 303.707031 252.699219 266.535156 Z M 122.285156 266.535156 L 122.570312 267.320312 C 135.863281 303.835938 157.914062 328.546875 182.710938 331.382812 L 182.710938 274.675781 C 161.179688 274.304688 140.734375 271.433594 122.285156 266.535156 Z M 47.964844 223.886719 L 48.085938 224.347656 C 61.308594 274.5 100.878906 313.957031 151.097656 327.019531 C 134.347656 313.621094 120.558594 291.214844 111.589844 263.394531 C 83.769531 254.425781 61.367188 240.636719 47.964844 223.886719 Z M 327.019531 223.886719 L 326.738281 224.238281 C 313.304688 240.832031 291.019531 254.488281 263.394531 263.394531 C 254.425781 291.214844 240.636719 313.621094 223.886719 327.019531 C 274.257812 313.917969 313.917969 274.257812 327.019531 223.886719 Z M 191.820312 192.046875 L 191.820312 265.574219 C 215.085938 265.195312 236.921875 261.800781 256.109375 256.109375 C 261.78125 236.984375 265.175781 215.226562 265.570312 192.046875 Z M 118.605469 255.191406 L 118.875 256.109375 C 137.9375 261.761719 159.617188 265.152344 182.710938 265.566406 L 182.710938 192.046875 L 109.414062 192.046875 C 109.804688 214.859375 113.097656 236.289062 118.605469 255.191406 Z M 108.453125 252.699219 L 108.101562 251.375 C 103.398438 233.207031 100.652344 213.144531 100.304688 192.046875 L 43.578125 192.046875 C 46.308594 217.113281 71.390625 239.398438 108.453125 252.699219 Z M 266.535156 252.699219 L 267.320312 252.417969 C 303.949219 239.082031 328.695312 216.9375 331.40625 192.046875 L 274.679688 192.046875 C 274.324219 213.660156 271.449219 234.183594 266.535156 252.699219 Z M 266.535156 122.285156 L 266.882812 123.613281 C 271.585938 141.777344 274.335938 161.839844 274.679688 182.9375 L 331.40625 182.9375 C 328.675781 157.871094 303.59375 135.585938 266.535156 122.285156 Z M 191.820312 109.410156 L 191.820312 182.9375 L 265.570312 182.9375 C 265.175781 159.757812 261.78125 138 256.109375 118.875 C 236.921875 113.1875 215.085938 109.789062 191.820312 109.410156 Z M 119.789062 118.605469 L 118.875 118.875 C 113.203125 138 109.808594 159.757812 109.414062 182.9375 L 182.710938 182.9375 L 182.710938 109.417969 C 159.984375 109.824219 138.632812 113.113281 119.789062 118.605469 Z M 108.453125 122.285156 L 107.664062 122.570312 C 71.035156 135.902344 46.289062 158.046875 43.578125 182.9375 L 100.304688 182.9375 C 100.660156 161.324219 103.535156 140.800781 108.453125 122.285156 Z M 151.097656 47.964844 L 150.636719 48.085938 C 100.484375 61.308594 61.027344 100.878906 47.964844 151.097656 C 61.367188 134.347656 83.769531 120.558594 111.589844 111.589844 C 120.558594 83.769531 134.347656 61.367188 151.097656 47.964844 Z M 223.886719 47.964844 L 224.238281 48.246094 C 240.832031 61.679688 254.488281 83.964844 263.394531 111.589844 C 291.214844 120.558594 313.621094 134.347656 327.019531 151.097656 C 313.917969 100.726562 274.257812 61.066406 223.886719 47.964844 Z M 122.285156 108.453125 L 123.613281 108.101562 C 141.714844 103.414062 161.695312 100.671875 182.710938 100.308594 L 182.710938 43.605469 C 157.734375 46.460938 135.546875 71.503906 122.285156 108.453125 Z M 191.820312 43.554688 L 191.820312 100.300781 C 213.515625 100.640625 234.121094 103.515625 252.699219 108.453125 C 239.359375 71.277344 216.980469 46.15625 191.820312 43.554688 Z M 191.820312 43.554688 " fill-opacity="1" fill-rule="nonzero"></path></g></svg><style>@media (prefers-color-scheme: light) { :root { filter: none; } }
</style></svg>